<?xml version="1.0" encoding="UTF-8"?>
<svg width="174px" height="174px" viewBox="0 0 174 174" version="1.1" xmlns="http://www.w3.org/2000/svg" xmlns:xlink="http://www.w3.org/1999/xlink">
    <!-- Generator: Sketch 53.2 (72643) - https://sketchapp.com -->
    <title>Avator-Chat Bot</title>
    <desc>Created with Sketch.</desc>
    <defs>
        <circle id="path-1" cx="87" cy="87" r="87"></circle>
        <polygon id="path-3" points="0 0.343308412 75.9115575 0.343308412 75.9115575 116 0 116"></polygon>
        <polygon id="path-5" points="0.081338 0.132650246 133.84456 0.132650246 133.84456 135.829 0.081338 135.829"></polygon>
    </defs>
    <g id="Avator-Chat-Bot" stroke="none" stroke-width="1" fill="none" fill-rule="evenodd">
        <g id="Group-33">
            <mask id="mask-2" fill="white">
                <use xlink:href="#path-1"></use>
            </mask>
            <use id="Mask" fill="#D1D1D1" xlink:href="#path-1"></use>
            <g mask="url(#mask-2)">
                <g transform="translate(12.000000, 16.000000)">
                    <path d="M95,140 C95,145.522698 86.9408559,150 76.9996605,150 C67.0584652,150 59,145.522698 59,140 C59,134.477302 67.0584652,130 76.9996605,130 C86.9408559,130 95,134.477302 95,140" id="Fill-1" fill="#F6BFA4"></path>
                    <g id="Group-5" stroke-width="1" fill="none" transform="translate(0.000000, 98.000000)">
                        <mask id="mask-4" fill="white">
                            <use xlink:href="#path-3"></use>
                        </mask>
                        <g id="Clip-4"></g>
                        <path d="M75.9115575,11.7522081 C75.9115575,11.7522081 40.8493274,-14.6629364 14.8902832,12.894104 C-11.062708,40.4484624 16.2838407,81.3629364 -0.000336283186,116 C17.3115221,106.03741 37.3237345,84.2709827 42.9322655,51.4966243 C48.5401239,18.7169017 75.9115575,11.7522081 75.9115575,11.7522081" id="Fill-3" fill="#933824" mask="url(#mask-4)"></path>
                    </g>
                    <g id="Group-8" stroke-width="1" fill="none" transform="translate(9.000000, 0.000000)">
                        <mask id="mask-6" fill="white">
                            <use xlink:href="#path-5"></use>
                        </mask>
                        <g id="Clip-7"></g>
                        <path d="M103.347768,130.068658 C114.885838,118.254747 133.844828,98.1448355 133.844828,72.0214463 C133.844828,7.15949557 84.644048,0.132382266 66.963418,0.132382266 C49.282118,0.132382266 0.081338,7.15949557 0.081338,72.0214463 C0.081338,97.9163823 18.852728,118.494589 30.286278,130.068658 C37.937678,137.814629 95.910768,137.683318 103.347768,130.068658" id="Fill-6" fill="#933824" mask="url(#mask-6)"></path>
                    </g>
                    <path d="M130.754375,93.4497687 C130.754375,118.416864 116.565269,146 76.0002455,146 C35.434549,146 21.2454423,118.416864 21.2454423,93.4497687 C21.2454423,68.4820042 2.03376217,16 76.0002455,16 C149.966729,16 130.754375,68.4820042 130.754375,93.4497687" id="Fill-9" fill="#F3C3B0"></path>
                    <path d="M56,95.5017129 C56,100.754787 53.090932,105 49.4993444,105 C45.9136575,105 43,100.754787 43,95.5017129 C43,90.2541199 45.9136575,86 49.4993444,86 C53.090932,86 56,90.2541199 56,95.5017129" id="Fill-11" fill="#231916"></path>
                    <path d="M109,95.5017129 C109,100.754787 106.091432,105 102.499344,105 C98.9052881,105 96,100.754787 96,95.5017129 C96,90.2541199 98.9052881,86 102.499344,86 C106.091432,86 109,90.2541199 109,95.5017129" id="Fill-13" fill="#231916"></path>
                    <path d="M51,112.500645 C51,116.090986 46.0772506,119 39.9979638,119 C33.9254643,119 29,116.090986 29,112.500645 C29,108.912237 33.9254643,106 39.9979638,106 C46.0772506,106 51,108.912237 51,112.500645" id="Fill-15" fill="#F3A99A"></path>
                    <path d="M123,112.500645 C123,116.090986 118.078912,119 111.997285,119 C105.923803,119 101,116.090986 101,112.500645 C101,108.912237 105.923803,106 111.997285,106 C118.078912,106 123,108.912237 123,112.500645" id="Fill-17" fill="#F3A99A"></path>
                    <path d="M72.4107339,113 C71.861983,113 71.3526194,112.657077 71.1743755,112.117171 L68.0627844,102.664548 C67.9326063,102.268617 68.0073752,101.836037 68.263726,101.504894 C68.5187416,101.173751 68.9206249,100.98462 69.3478762,101.000981 L77.7493724,101.30791 C78.4663535,101.334087 79.0257857,101.92504 78.9990825,102.6279 C78.9723793,103.330761 78.3715571,103.881793 77.6525733,103.852998 L71.1049471,103.613475 L73.6477599,111.335778 C73.8673938,112.004608 73.4928814,112.722521 72.8099469,112.938483 C72.6770984,112.980367 72.5429148,113 72.4107339,113" id="Fill-19" fill="#F3A99A"></path>
                    <path d="M97.7610143,72.7729028 C98.280255,55.5796412 96.3110464,39.1299546 96.3110464,39.1299546 C96.3110464,39.1299546 105.894438,51.5680573 108.556641,73.7583556 C119.140127,74.9458163 130.15261,76.8834971 139.468637,79.9980065 C139.807389,77.5347066 140,75.0282143 140,72.4772005 C140,12.4974767 92.5517706,6 75.4996633,6 C58.4482294,6 11,12.4974767 11,72.4772005 C11,75.0255563 11.1926107,77.5333776 11.5313631,80 C32.2875221,73.0606311 61.4821845,71.9701873 75.4996633,71.9701873 C81.0362104,71.9701873 88.9433507,72.1402992 97.7610143,72.7729028" id="Fill-21" fill="#933824"></path>
                    <path d="M75.4411266,131 C62.9528237,131 55.6242936,121.855038 55.318148,121.465325 C54.7925529,120.796783 54.9327567,119.847466 55.6310668,119.344924 C56.3286995,118.843031 57.3196089,118.976609 57.8445267,119.643207 C57.9407052,119.763168 64.6129186,128.015875 75.5142764,127.971781 C86.4569503,127.971781 93.0885249,119.687949 93.1542243,119.6043 C93.6784648,118.935758 94.6707288,118.80153 95.3683616,119.304072 C96.0666716,119.806614 96.2075528,120.755931 95.6826349,121.423825 C95.3751347,121.814835 88.0188348,131 75.5196949,131 L75.4411266,131 Z" id="Fill-23" fill="#231916"></path>
                    <path d="M38.0706126,71 C37.7968563,71 37.5237878,70.8983497 37.3146875,70.6943758 C36.8971747,70.2857549 36.8944234,69.6253643 37.3105605,69.215397 C37.5994491,68.9299682 44.5190182,62.274227 55.3090063,66.278308 C55.8613338,66.4836282 56.1399049,67.0881448 55.9301168,67.6300556 C55.7203286,68.17062 55.1033452,68.4425851 54.5489543,68.2379381 C45.0954197,64.7293183 39.0789713,70.4486647 38.8279134,70.6937026 C38.6188131,70.8976765 38.3443689,71 38.0706126,71" id="Fill-25" fill="#231916"></path>
                    <path d="M112.929344,72 C112.65491,72 112.380477,71.8970264 112.170698,71.6917522 C111.910709,71.4386929 105.895191,65.7320712 96.4509792,69.2378847 C95.8979863,69.4424858 95.2796521,69.1699087 95.0698725,68.6294655 C94.8600928,68.0883494 95.1386527,67.4832954 95.6916456,67.2780212 C106.479823,63.2748385 113.3998,69.9290866 113.689365,70.2144513 C114.105485,70.6249996 114.103422,71.2879342 113.683863,71.6957904 C113.474771,71.8990455 113.201713,72 112.929344,72" id="Fill-27" fill="#231916"></path>
                    <path d="M30.9998451,87.8577195 C31.0044838,88.7217235 30.9050818,89.6268395 30.6844093,90.5658892 C27.5300515,104.020598 10.1035502,97.4107066 13.4169512,85.0242562 C16.5726344,73.2283826 30.9435173,77.7448266 30.9998451,87.8577195" id="Fill-29" fill="#F3C3B0"></path>
                    <path d="M21.0396495,82 C19.3906403,82.4088909 17.9246215,83.7052917 17.2590113,86.1511903 C16.1191625,90.3470608 18.9303704,93.4536839 22,94 C21.8910439,90.3788785 21.4936334,86.3251721 21.0396495,82" id="Fill-31" fill="#E3A788"></path>
                </g>
            </g>
        </g>
    </g>
</svg>